<?xml version="1.0" encoding="UTF-8" standalone="no"?>
<!-- Created with Inkscape (http://www.inkscape.org/) -->

<svg
   version="1.1"
   id="svg8305"
   width="250.6665"
   height="250.6665"
   viewBox="0 0 1002.666 1002.666"
   sodipodi:docname="SVG_github_repo.svg"
   inkscape:version="1.1 (c68e22c387, 2021-05-23)"
   xmlns:inkscape="http://www.inkscape.org/namespaces/inkscape"
   xmlns:sodipodi="http://sodipodi.sourceforge.net/DTD/sodipodi-0.dtd"
   xmlns="http://www.w3.org/2000/svg"
   xmlns:svg="http://www.w3.org/2000/svg">
  <defs
     id="defs8309" />
  <sodipodi:namedview
     id="namedview8307"
     pagecolor="#ffffff"
     bordercolor="#666666"
     borderopacity="1.0"
     inkscape:pageshadow="2"
     inkscape:pageopacity="0.0"
     inkscape:pagecheckerboard="true"
     showgrid="false"
     scale-x="4"
     fit-margin-top="2"
     fit-margin-left="2"
     fit-margin-right="2"
     fit-margin-bottom="2"
     inkscape:zoom="0.33826459"
     inkscape:cx="913.4861"
     inkscape:cy="-33.997056"
     inkscape:window-width="2342"
     inkscape:window-height="1197"
     inkscape:window-x="415"
     inkscape:window-y="-5"
     inkscape:window-maximized="0"
     inkscape:current-layer="g8311" />
  <g
     inkscape:groupmode="layer"
     inkscape:label="Image"
     id="g8311"
     transform="translate(7.9999999,7.9999999)">
    <path
       id="path8415"
       style="display:inline;fill:#000000;stroke-width:1"
       d="M 0,0 V 493.33398 986.66602 H 493.33398 986.66602 V 493.33398 0 H 493.33398 Z m 312.54686,40.531638 -5.89566,27.310154 c 0,0 -21.64302,-4.771115 -30.97545,-4.941033 -16.31136,-0.296985 -27.53055,6.092778 -33.64687,18.613693 -7.44484,15.241713 -5.5992,45.349818 1.84367,60.562898 5.49249,11.22624 13.45645,17.13442 32.17109,16.17228 l 10.543,-0.81211 -0.5543,-29.05745 -20.24335,-0.79843 -0.22813,-26.98515 52.26404,-0.695315 1.36299,76.990225 -8.11172,4.15898 c -12.05847,4.98431 -24.30376,7.69113 -37.00507,7.63711 -28.55351,1.20263 -56.63773,-12.11753 -65.47929,-43.98904 -3.45038,-12.43766 -4.5493,-47.689837 -1.091,-60.891402 8.93367,-34.103345 24.14735,-49.138741 60.64293,-51.285554 17.38638,-0.0074 32.79163,2.552758 44.40312,8.010144 z M 534.2882,38.956266 566.40039,38.383507 V 186.40039 l -32.74303,-0.57276 -0.40461,-63.08038 -42.12092,-0.15307 0.86817,64.10309 -33.06641,-0.29688 1.0452,-147.494284 31.75991,-0.296875 -0.87111,54.165751 42.97116,0.306131 z m 183.13368,0.36 0.12963,49.575407 c 0,0 8.64421,-4.207156 11.31027,-4.963386 10.50452,-2.979616 24.31531,-2.155053 31.79287,1.705287 7.55366,3.89962 13.3227,9.688392 16.95285,18.931296 2.67747,6.81718 3.67923,10.27869 3.75003,26.50781 0.0485,11.11152 -0.77942,21.43162 -1.8533,26.26647 -3.76993,16.97298 -11.00786,27.04235 -24.38876,29.91204 -12.5437,2.69014 -26.91394,1.0829 -37.2178,-4.24543 -1.76975,-0.91517 -8.41497,-5.19617 -8.41497,-5.19617 l -0.65723,8.04319 -23.4105,-0.53642 0.27058,-145.742544 z m -367.67266,2.256397 c 5.89954,-0.44147 14.63147,5.616758 16.90585,11.888279 3.67602,10.136486 -2.50594,19.137316 -8.63515,22.924987 -4.77716,2.95214 -21.28562,2.43999 -24.61092,-9.829279 -1.95168,-7.201023 -2.40896,-12.964617 3.37343,-18.569527 3.87122,-3.752142 6.80815,-5.953601 12.96679,-6.41446 z m 75.31719,14.694915 -0.43282,28.800404 20.48481,0.369533 0.209,27.011305 -21.32465,0.0448 0.0765,41.45489 c 1.7446,4.7155 -0.27467,8.04328 11.47343,8.04328 5.26125,0 10.19021,-0.82461 10.19021,-0.82461 l 0.50629,23.90426 c 0,0 -19.99257,3.382 -27.41717,1.82148 -10.33304,-2.17184 -18.47757,-5.7676 -22.98438,-14.78123 -3.9508,-7.90161 -3.45209,-6.82935 -3.90468,-31.52187 l 0.0972,-29.06486 -16.15278,0.18476 0.12193,-21.756684 16.09609,-3.469849 -1.17189,-30.215639 z m 185.26792,28.776296 c 0,0 -0.66698,55.426906 0.76052,67.170606 0.28874,2.37544 0.74008,5.14678 2.55193,6.7099 3.53919,3.05331 8.37746,3.98576 13.69601,3.00943 0.87284,0.11667 5.56843,-0.77488 8.91418,-2.42503 2.74055,-1.35166 4.31748,-3.51324 4.31748,-3.51324 l -0.59566,-70.421465 31.09738,-0.123286 1.29336,99.396851 -22.81357,0.10146 -0.13463,-6.87273 c 0,0 -7.11573,4.16571 -10.72685,5.64658 -6.08979,2.49733 -12.40626,4.12794 -21.34773,4.48722 -20.27449,0.81464 -30.32613,-5.18956 -36.65227,-18.68058 -3.91813,-32.0064 -2.70229,-84.664356 -2.70229,-84.664356 z m -244.85777,0.332306 -0.60898,100.31913 -31.13047,-0.14219 -0.21836,-100.102329 z m 369.2976,22.39186 c -1.81841,0.0193 -6.21075,0.48442 -8.50012,0.99676 0,0 -3.40564,0.78627 -4.98865,1.49987 -1.76755,0.79678 -4.94358,3.06475 -4.94358,3.06475 l 0.57021,44.64501 c 0,0 11.58997,4.37968 16.35664,4.20201 8.45251,-0.31505 12.05595,-2.46202 14.32961,-7.01336 3.1403,-6.28619 2.44427,-31.45718 -0.60898,-37.89142 -2.25105,-4.74372 -6.75989,-9.56139 -12.21513,-9.50362 z M 497.18862,246.62988 c 30.33573,0 44.58478,2.20134 72.02748,9.40583 95.31705,25.0234 169.71539,97.61071 196.96583,191.82087 34.30392,118.59539 -11.13458,241.83637 -115.88544,309.91607 -21.38972,13.90168 -59.60825,32.74922 -69.03984,32.74922 -5.60357,0 -11.50527,-3.604 -13.69063,-7.83008 -1.77524,-3.43292 -0.24022,-8.9651 -0.24022,-47.3457 0,-26.58459 -1.33032,-47.9824 -2.17657,-52.56014 -1.79361,-9.70262 -6.30842,-22.26223 -11.6123,-28.88986 -2.23033,-2.78696 -4.34434,-5.66757 -4.34434,-5.66757 0,0 10.36692,-2.57706 19.51836,-4.14394 24.43808,-4.18421 44.50944,-11.47905 61.5914,-23.59551 23.03826,-16.34133 38.88535,-46.60032 43.56563,-82.30352 5.37029,-40.96695 -0.84017,-70.88919 -21.06796,-95.81524 -5.14775,-6.3434 -5.55842,-6.51537 -5.55842,-6.51537 0,0 6.47983,-17.23265 5.95672,-35.00249 -0.3755,-12.75562 -4.73386,-27.07857 -7.1733,-33.88546 l -1.88848,-5.70099 c 0,0 -10.70608,-0.73423 -15.87973,0.39219 -21.40536,6.42828 -29.2389,8.26986 -61.20711,27.83548 0,0 -11.6054,-3.12788 -21.70456,-5.0388 -14.35024,-2.71529 -23.79224,-3.70665 -49.04865,-3.70665 -25.25642,0 -33.22028,0.99136 -47.57052,3.70665 -15.978,3.02329 -21.98363,5.91362 -21.98363,5.91362 0,0 -9.36367,-5.85726 -12.5781,-7.91109 -19.42295,-12.41012 -32.00769,-17.58778 -49.64332,-21.07636 -4.85997,-0.96137 -14.86155,0.16211 -14.86155,0.16211 0,0 -3.13754,5.96791 -3.92287,9.21155 -4.11719,17.00507 -7.64112,37.60955 -3.80137,52.35134 1.58492,6.08489 3.98518,12.9497 3.98518,12.9497 0,0 -2.59463,2.19319 -4.73966,4.83644 -17.17754,21.16735 -25.7455,49.84376 -24.05723,81.242 2.42524,45.10439 19.06251,78.67991 46.03674,97.92832 19.24901,13.7358 37.84142,21.56345 73.06054,27.00977 2.72428,0.42129 9.40576,-1.00972 9.87891,-0.24415 0.47314,0.7656 -3.69644,2.4147 -5.87891,5.47071 -5.94157,8.31975 -11.3807,21.03201 -12.16406,31.40625 0,0 -13.81511,7.46676 -24.52148,8.1543 -21.6392,1.38958 -32.96916,-1.06878 -49.28516,-18.78516 -1.87711,-2.03822 -4.08977,-5.02528 -5.44922,-7.5 -4.63252,-8.43296 -11.03755,-16.01064 -18.59766,-21.69531 -8.55209,-6.43058 -18.9471,-11.26753 -29.7539,-10.38477 -12.09932,-0.0801 -14.02313,6.60782 -2.08789,14.71289 12.41768,8.43269 22.86808,19.01547 31.30664,36.34766 11.00701,22.60757 20.91637,33.78442 41.84765,39.35547 8.34677,2.22158 34.2152,3.67587 44.57618,1.71093 5.03984,-0.95577 10.14311,-3.86558 11.43554,-2.79297 1.41386,1.17341 1.80664,7.55635 1.80664,29.4004 0,31.20862 -0.59635,33.85238 -8.47656,37.59179 -2.52647,1.19888 -6.30341,2.13458 -8.39258,2.08008 -5.89635,-0.15407 -19.66321,-7.26603 -39.18241,-16.7379 C 241.16167,711.04974 183.00649,557.82453 235.88168,420.98577 267.56927,338.9796 338.14559,278.41314 424.37918,255.77441 c 27.44271,-7.20449 42.4737,-9.14453 72.80944,-9.14453 z M 318.47656,641.16406 c 1.98864,7.1e-4 4.15651,2.17383 3.99414,2.93164 2.3e-4,1.83644 -1.61209,2.67312 -3.60156,2.67383 -1.99024,2.9e-4 -3.47289,-0.83669 -3.47266,-2.67383 9.4e-4,-1.83638 1.09067,-2.93193 3.08008,-2.93164 z m 11.8711,10.82227 c 2.17905,-3.5e-4 3.94567,1.32024 3.94531,2.94922 3.6e-4,1.62898 -1.76626,2.94957 -3.94531,2.94922 -2.17829,-4.6e-4 -3.94372,-1.32081 -3.94336,-2.94922 -3.6e-4,-1.62841 1.76507,-2.94876 3.94336,-2.94922 z m 11.01757,13.5664 c 2.50041,1.04484 3.35168,2.05471 4.52735,5.04297 -7.6e-4,2.85686 -0.98267,3.99645 -3.48242,3.9961 -2.49899,-0.91542 -4.65548,-1.40183 -4.65625,-4.25782 -1.7e-4,-2.85674 1.11167,-4.78037 3.61132,-4.78125 z m 14.53907,16.86915 c 3.18777,4.8e-4 4.20325,2.25669 4.20312,4.71679 1.4e-4,2.4601 -1.43169,3.40616 -4.5957,3.01758 -3.18854,-0.39159 -4.33608,-2.2561 -4.33594,-4.7168 -1.3e-4,-2.46069 1.53998,-3.01794 4.72852,-3.01757 z m 18.9414,11.00781 c 3.22402,-7.2e-4 5.8381,1.80701 5.83789,4.03711 -10e-4,2.22934 -2.61498,4.03587 -5.83789,4.03515 -3.22215,-3e-5 -5.83458,-1.80634 -5.83593,-4.03515 -2.1e-4,-2.22957 2.61267,-4.03708 5.83593,-4.03711 z m 44.76953,0.77734 c 3.44545,9e-5 5.45328,1.43629 5.45313,3.85352 1.5e-4,2.41723 -2.53111,3.59366 -5.97656,3.59375 -3.44545,-9e-5 -5.715,-0.52223 -5.71485,-2.93946 -1.5e-4,-2.41723 2.79282,-4.50772 6.23828,-4.50781 z m -21.69921,2.63086 c 3.33771,3.7e-4 6.04311,1.77891 6.04296,3.97266 1.4e-4,2.19375 -2.70526,3.97228 -6.04296,3.97265 -3.33847,3.5e-4 -6.04507,-1.7784 -6.04493,-3.97265 -1.5e-4,-2.19426 2.70646,-3.97301 6.04493,-3.97266 z m 163.65419,148.06389 0.0546,16.40675 -17.34522,0.13065 0.21347,-16.5062 z m -323.91787,-0.009 c 12.4434,0.004 14.99353,0.92406 20.17188,5.4707 4.61376,4.05094 7.5527,10.4043 7.51562,17.36914 -0.0123,2.31686 0.11316,4.35541 -0.73242,7.76758 -0.70762,2.85549 -2.96351,6.86563 -4.1582,8.41016 -5.44384,7.03794 -13.34961,7.14648 -13.34961,7.14648 0,0 3.89311,3.82482 7.35742,7.55078 4.98305,5.3594 18.73047,28.36524 18.73047,28.36524 l -21.05859,0.91796 c 0,0 -14.24952,-22.18264 -20.02735,-29.78124 -1.24175,-0.8797 -2.09162,-2.42895 -3.26562,-3.01368 -6.18906,-3.08258 -12.94141,-2.01172 -12.94141,-2.01172 -0.0523,7.89264 0.24805,34.9668 0.24805,34.9668 l -18.01953,0.23438 c 0,0 -0.30355,-13.99507 -0.0527,-43.75782 l 0.53516,-38.97656 22.8418,-0.45703 c 6.81046,-0.10147 12.05728,-0.20252 16.20507,-0.20117 z m 355.70508,1.79101 0.0371,21.15625 10.82617,-0.58203 0.0215,13.34571 -10.69727,0.52929 c 0,0 -1.343,20.40352 0.20899,29.18946 0,0 0.53343,3.35155 1.94726,3.77343 3.05263,0.9109 8.77149,-0.64258 8.77149,-0.64258 l 0.73632,13.35938 c 0,0 -13.75918,4.19449 -20.58593,0.28516 -2.37697,-1.36118 -4.38111,-3.34819 -5.67969,-4.73047 -3.44069,-3.66245 -1.64648,-41.17383 -1.64648,-41.17383 l -7.88086,-0.0644 0.25586,-13.39453 7.32031,-0.41407 -0.006,-11.43945 z m -368.41015,13.00586 c -5.12893,0.0829 -9.05274,0.30078 -9.05274,0.30078 l 0.27735,19.42774 24.21093,-0.66602 c 12.10935,-2.55779 7.93737,-18.24435 0.84766,-18.55078 -4.81985,-0.54304 -11.15428,-0.59464 -16.2832,-0.51172 z m 272.9617,6.24675 c 4.27731,-0.85511 7.81508,-0.26285 10.74454,0.0621 4.97043,0.55131 9.40185,1.81775 11.80938,3.07398 6.31059,2.08264 9.57813,14.39648 9.57813,14.39648 l -16.1836,1.98437 c 0,0 -0.1548,-1.91622 -1.17383,-3.57617 -0.75964,-1.2374 -2.23124,-2.24457 -3.23047,-2.67773 -4.48831,-1.94565 -12.44493,-1.73462 -14.53515,2.03516 -0.58766,1.05985 -0.046,2.68374 0.80664,3.54492 1.60325,1.61928 3.98878,2.55029 6.85156,3.08593 7.51322,1.40577 20.10742,5.32422 20.10742,5.32422 3.99577,1.00221 10.20124,5.39672 9.8711,17.09571 -0.23806,8.43607 -4.21206,12.00804 -11.54297,16.11132 -9.13367,5.11231 -19.22966,3.46146 -25.76953,2.35938 -17.19277,-2.8973 -18.93164,-19.41602 -18.93164,-19.41602 l 16.78711,-2.62304 c 0,0 1.33846,8.59318 8.49218,9.33398 7.61655,0.78874 12.39508,-0.29842 13.40039,-4.41406 1.0435,-4.27197 -7.23156,-6.16578 -12.18554,-7.25391 -20.51637,-4.50641 -25.17087,-10.05811 -24.55664,-18.64062 0.46735,-6.53037 -0.7362,-7.85178 3.07617,-11.78516 7.01305,-7.2982 10.56308,-6.81698 16.58475,-8.02083 z m -193.741,-0.17447 c 9.16164,0.0556 16.18368,4.1106 20.48437,8.47851 3.45588,3.50991 5.27678,9.33077 6.23633,15.09961 1.09645,6.59193 1.06641,12.95508 1.06641,12.95508 l -38.99219,-0.0801 c 0,0 -0.15972,4.93687 1.72266,7.64844 1.09157,1.57241 2.83875,3.94429 4.95312,4.91211 2.37878,1.08884 5.59295,1.16413 7.82422,0.60547 1.43009,-0.35807 3.37313,-1.75561 4.57031,-3.52734 1.20791,-1.78758 1.66407,-3.94922 1.66407,-3.94922 l 17.58203,1.38086 c 0,0 -0.27373,2.65223 -1.84766,5.17382 -3.60556,5.77646 -7.0889,9.50505 -12.50391,12.26758 -6.10035,3.11216 -14.96758,2.89556 -22.25781,1.18555 -7.82265,-1.83492 -14.78671,-8.78364 -17.44922,-16.59766 -1.16813,-3.42829 -1.85661,-9.69287 -1.84961,-14.8789 0.0136,-9.8198 2.44187,-15.96683 7.2461,-21.76953 4.69484,-5.67058 11.67467,-8.96419 21.55078,-8.9043 z m 336.28906,0.25976 c 11.12852,-0.16876 18.83647,3.4928 24.30859,9.99219 4.40025,5.22628 7.68196,12.18891 7.6504,21.2168 -0.0471,13.48207 -5.46595,23.67465 -16.36133,28.89844 -6.8326,3.27589 -15.87568,3.8209 -22.70508,2.12695 -16.07425,-3.98704 -22.77052,-15.93765 -22.70703,-33.64453 0.0353,-9.85361 3.9024,-16.27685 9.14258,-20.96875 5.03874,-4.51153 11.26306,-7.47842 20.67187,-7.6211 z m -200.04297,0.11133 c 4.86682,0.15816 11.05184,1.07306 15.52149,3.73047 8.89279,5.28719 15.81847,15.03935 14.55468,30.95313 -1.16164,14.6276 -12.21239,24.33079 -21.625,26.77148 -26.81749,6.95375 -46.66831,-13.98962 -38.43945,-41.45508 4.17304,-13.92835 15.38783,-20.47447 29.98828,-20 z m 268.88867,0.0586 c 1.34814,-0.16186 2.71155,-0.14856 3.98633,0.0625 3.95209,0.3512 5.50977,2.66015 5.50977,2.66015 l 0.31445,-1.04687 18.74219,-0.0566 c 0,0 6.71026,25.1465 13.15625,37.375 2.66661,-8.11988 13.35937,-37.63672 13.35937,-37.63672 l 17.41211,0.55078 c 0,0 -25.63745,70.52688 -28.72851,75.22851 -1.84592,2.80773 -5.36231,5.68831 -7.78711,6.39063 -8.26871,2.39496 -20.75391,0.93359 -20.75391,0.93359 l 0.18945,-14.28711 c 0,0 11.02449,4.74583 15.96876,-5.89257 2.06222,-4.4372 -4.06026,-17.166 -7.1836,-26.01758 -4.64344,-12.29932 -12.40577,-30.07998 -12.62109,-30.36719 -0.21532,-0.28723 -3.88281,9.81055 -3.88281,9.81055 0,0 -7.44624,-7.08268 -14.31446,0.7832 -1.66191,1.90332 -2.51375,2.49411 -2.87695,6.05469 l -0.041,36.47265 -17.28125,0.11719 -0.26172,-59.91211 16.14063,-0.27148 0.006,5.85937 c 0,0 1.22288,-1.93918 2.9375,-3.4707 1.6096,-1.43773 3.31897,-1.75513 4.11523,-2.34766 1.2134,-0.49328 2.5464,-0.83033 3.89453,-0.99218 z m -332.90429,0.26953 c 9.99411,-0.41257 18.60014,8.42214 21.9707,14.1914 2.0628,3.53082 2.74324,6.35916 2.74024,16.15821 0.38794,4.66578 -0.72406,19.16504 -8.99805,26.42968 -8.04972,7.06776 -15.91242,8.1052 -26.71875,3.50782 -2.11868,-0.90136 -5.47071,-3.85547 -5.4707,-3.85547 l 0.23828,27.70312 -17.30274,0.51368 0.11328,-83.63868 14.89844,-0.77148 0.99414,6.36133 c 0,0 4.86299,-3.52292 7.6211,-4.90625 3.23104,-1.62051 6.58269,-1.55583 9.91406,-1.69336 z m 168.07462,0.97285 16.77244,-0.23096 0.36963,60.80117 -16.94521,0.10265 z m -240.9965,12.35723 c -1.67319,0 -5.54021,0.84807 -7.42187,3.82812 -2.02207,3.20244 -2.23047,7.30664 -2.23047,7.30664 l 20.53711,-0.18555 c 0,0 -0.30843,-4.95154 -3.00781,-8.01757 -2.0208,-2.29528 -6.27283,-2.93164 -7.87696,-2.93164 z m 135.14258,0.3496 c -2.63378,0.13104 -7.98117,3.4471 -9.56055,6.13086 -4.1759,7.09589 -2.32055,22.61257 4.13477,25.73829 4.5002,2.17902 10.2251,2.83949 14.21875,-0.59571 3.31223,-2.84906 6.07031,-6.69963 6.07031,-13.93164 0,-6.56291 -2.51437,-11.4206 -4.86133,-13.76758 -2.08975,-2.08975 -7.36817,-3.70525 -10.00195,-3.57422 z m 203.36719,0.0176 c -6.21916,-0.8289 -13.1805,6.96727 -13.90625,15.71875 -0.56393,6.80039 0.61336,10.27157 4.36523,14.02344 4.89734,4.89735 11.48966,5.89438 16.45313,1.625 3.33342,-2.8673 5.83203,-6.70994 5.83203,-13.9082 0,-9.55977 -3.9218,-16.28315 -12.74414,-17.45899 z m -270.53516,0.31836 c -1.88916,0.1407 -5.32265,0.56875 -7.36133,2.60742 -3.12742,3.12743 -5.07002,6.92071 -4.56054,14.92188 0.45451,7.13802 2.03761,11.43612 4.54297,13.46484 4.04224,3.27322 12.08951,4.06836 15.23046,0.59766 1.98735,-2.19599 4.23829,-7.57608 4.23829,-14.86133 0,-8.17682 -1.95062,-11.84369 -4.71485,-14.08203 -2.1339,-1.72792 -5.48583,-2.78913 -7.375,-2.64844 z"
       sodipodi:nodetypes="cccccccccccscccccccccccsccccccccccccccccccssssssscccccsssscsccccccsccssccccccccsacsccccccssccccccccscaccssssssssssssscsssscsccccssscsacascsssssscsssscssssssscsssscccccscscscccccscscsccccccccccscscscccccssssscscccsccccccssccccccsccssccccccsccccssscccssssscsssccsssscasssccssssccsssscsssssssssssscsssscsccccccssccscscsccccccscccsccssccccccsscscccssccssssssssssssssssssssssss"
       inkscape:label="GitHub_Repo" />
  </g>
</svg>
